<?xml version="1.0" encoding="UTF-8" standalone="no"?>
<svg
   xmlns:dc="http://purl.org/dc/elements/1.1/"
   xmlns:cc="http://creativecommons.org/ns#"
   xmlns:rdf="http://www.w3.org/1999/02/22-rdf-syntax-ns#"
   xmlns:svg="http://www.w3.org/2000/svg"
   xmlns="http://www.w3.org/2000/svg"
   y="0"
   x="0"
   width="437.5"
   version="1.0"
   id="svg1"
   height="437.5">
  <title
     id="title4165">matriz</title>
  <metadata
     id="metadata4137">
    <rdf:RDF>
      <cc:Work
         rdf:about="">
        <dc:title>matriz</dc:title>
        <dc:description />
        <dc:subject>
          <rdf:Bag>
            <rdf:li>icon</rdf:li>
            <rdf:li />
            <rdf:li>lemon_theme_icon</rdf:li>
            <rdf:li>icons</rdf:li>
            <rdf:li>hash</rdf:li>
            <rdf:li>action</rdf:li>
            <rdf:li>computer</rdf:li>
            <rdf:li>theme</rdf:li>
          </rdf:Bag>
        </dc:subject>
        <dc:format>image/svg+xml</dc:format>
      </cc:Work>
      <cc:License
         rdf:about="http://web.resource.org/cc/PublicDomain">
        <cc:permits
           rdf:resource="http://web.resource.org/cc/Reproduction" />
        <cc:permits
           rdf:resource="http://web.resource.org/cc/Distribution" />
        <cc:permits
           rdf:resource="http://web.resource.org/cc/DerivativeWorks" />
      </cc:License>
    </rdf:RDF>
  </metadata>
  <path
     style="font-size:12;fill:#d3ffd3;fill-opacity:1;fill-rule:evenodd;stroke:#004d00;stroke-width:18.02685;"
     id="path628"
     d="M 37.5 36.70557 L 37.5 129.8738 L 124.7002 129.8738 L 124.7002 36.70557 L 37.5 36.70557 z " />
  <path
     style="font-size:12;fill:#d3ffd3;fill-opacity:1;fill-rule:evenodd;stroke:#004d00;stroke-width:18.02618;"
     id="path631"
     d="M 312.6306 36.70775 L 312.6306 129.8739 L 399.831 129.8739 L 399.831 36.70775 L 312.6306 36.70775 z " />
  <path
     style="font-size:12;fill:#d3ffd3;fill-opacity:1;fill-rule:evenodd;stroke:#004d00;stroke-width:18.02617;"
     id="path632"
     d="M 174.5056 36.70779 L 174.5056 129.8739 L 261.7059 129.8739 L 261.7059 36.70779 L 174.5056 36.70779 z " />
  <path
     style="font-size:12;fill:#d3ffd3;fill-opacity:1;fill-rule:evenodd;stroke:#004d00;stroke-width:18.02617;"
     id="path633"
     d="M 37.5 174.5821 L 37.5 267.7499 L 124.7002 267.7499 L 124.7002 174.5821 L 37.5 174.5821 z " />
  <path
     style="font-size:12;fill:#d3ffd3;fill-opacity:1;fill-rule:evenodd;stroke:#004d00;stroke-width:18.02551;"
     id="path634"
     d="M 312.6306 174.5843 L 312.6306 267.75 L 399.831 267.75 L 399.831 174.5843 L 312.6306 174.5843 z " />
  <path
     style="font-size:12;fill:#d3ffd3;fill-opacity:1;fill-rule:evenodd;stroke:#004d00;stroke-width:18.0255;"
     id="path635"
     d="M 174.5056 174.5843 L 174.5056 267.75 L 261.7059 267.75 L 261.7059 174.5843 L 174.5056 174.5843 z " />
  <path
     style="font-size:12;fill:#d3ffd3;fill-opacity:1;fill-rule:evenodd;stroke:#004d00;stroke-width:18.02612;"
     id="path636"
     d="M 37.5 313.0819 L 37.5 406.2499 L 124.7002 406.2499 L 124.7002 313.0819 L 37.5 313.0819 z " />
  <path
     style="font-size:12;fill:#d3ffd3;fill-opacity:1;fill-rule:evenodd;stroke:#004d00;stroke-width:18.02546;"
     id="path637"
     d="M 312.6306 313.084 L 312.6306 406.25 L 399.831 406.25 L 399.831 313.084 L 312.6306 313.084 z " />
  <path
     style="font-size:12;fill:#d3ffd3;fill-opacity:1;fill-rule:evenodd;stroke:#004d00;stroke-width:18.02545;"
     id="path638"
     d="M 174.5056 313.0841 L 174.5056 406.25 L 261.7059 406.25 L 261.7059 313.0841 L 174.5056 313.0841 z " />
</svg>
